<svg width="32" height="32" viewBox="0 0 32 32" xmlns="http://www.w3.org/2000/svg">
  <defs>
    <linearGradient id="bgGrad" x1="0%" y1="0%" x2="100%" y2="100%">
      <stop offset="0%" style="stop-color:#1e1b4b;stop-opacity:1" />
      <stop offset="100%" style="stop-color:#312e81;stop-opacity:1" />
    </linearGradient>
    <linearGradient id="clawGrad" x1="0%" y1="0%" x2="100%" y2="100%">
      <stop offset="0%" style="stop-color:#6366f1;stop-opacity:1" />
      <stop offset="100%" style="stop-color:#8b5cf6;stop-opacity:1" />
    </linearGradient>
  </defs>
  
  <!-- Background -->
  <rect width="32" height="32" rx="4" ry="4" fill="url(#bgGrad)"/>
  
  <!-- Centered claw marks with ripping effect -->
  <!-- Claw mark 1 - main tear -->
  <path d="M8 10 Q9 9.5 10 10 L20 20 Q21 20.5 22 20 L24 22 Q23.5 23 23 22.5 L13 12.5 Q12.5 11.5 12 12 L8 10" 
        fill="url(#clawGrad)" opacity="0.9"/>
  <path d="M8.5 10.5 L21.5 21 L23.5 21.5 L12.5 11.5 Z" fill="#000" opacity="0.3"/>
  
  <!-- Claw mark 2 -->
  <path d="M10 8 Q11 7.5 12 8 L22 18 Q23 18.5 24 18 L26 20 Q25.5 21 25 20.5 L15 10.5 Q14.5 9.5 14 10 L10 8" 
        fill="url(#clawGrad)" opacity="0.8"/>
  <path d="M10.5 8.5 L23.5 19 L25.5 19.5 L14.5 9.5 Z" fill="#000" opacity="0.25"/>
  
  <!-- Claw mark 3 -->
  <path d="M12 6 Q13 5.5 14 6 L24 16 Q25 16.5 26 16 L28 18 Q27.5 19 27 18.5 L17 8.5 Q16.5 7.5 16 8 L12 6" 
        fill="url(#clawGrad)" opacity="0.7"/>
  <path d="M12.5 6.5 L25.5 17 L27.5 17.5 L16.5 7.5 Z" fill="#000" opacity="0.2"/>
  
  <!-- Jagged ripping edges -->
  <g fill="#8b5cf6" opacity="0.4">
    <polygon points="8,10 9,9 8.5,10.5 9.5,9.5"/>
    <polygon points="10,8 11,7 10.5,8.5 11.5,7.5"/>
    <polygon points="12,6 13,5 12.5,6.5 13.5,5.5"/>
    <polygon points="22,20 23,21 22.5,19.5 23.5,20.5"/>
    <polygon points="24,18 25,19 24.5,17.5 25.5,18.5"/>
    <polygon points="26,16 27,17 26.5,15.5 27.5,16.5"/>
  </g>
</svg>